HIERARCHY
ROOT Hips
{
	OFFSET 0.000000 121.760803 0.000000
	CHANNELS 6 Xposition Yposition Zposition Xrotation Yrotation Zrotation 
	JOINT Spine
	{
		OFFSET 0.072000 7.257294 -0.789700
		CHANNELS 3 Xrotation Yrotation Zrotation
		JOINT Spine1
		{
			OFFSET 0.000000 12.508769 -0.658067
			CHANNELS 3 Xrotation Yrotation Zrotation
			JOINT Spine1_split
			{
				OFFSET 0.000000 12.508769 -0.658067
				CHANNELS 3 Xrotation Yrotation Zrotation
				JOINT Spine2
				{
					OFFSET 0.000000 12.508769 -0.658067
					CHANNELS 3 Xrotation Yrotation Zrotation
					JOINT Neck
					{
						OFFSET 0.000000 14.033295 7.520400
						CHANNELS 3 Xrotation Yrotation Zrotation
						JOINT Head
						{
							OFFSET 0.000000 8.198502 5.703100
							CHANNELS 3 Xrotation Yrotation Zrotation
							JOINT HeadTop_End
							{
								OFFSET 0.000000 17.760803 13.332701
								CHANNELS 3 Xrotation Yrotation Zrotation
								End Site
								{
									OFFSET 0.000000 0.000000 0.000000
								}
							}
						}
					}
					JOINT LeftShoulder
					{
						OFFSET 6.292450 5.785301 -0.669000
						CHANNELS 3 Xrotation Yrotation Zrotation
						JOINT LeftShoulder_split
						{
							OFFSET 6.292450 5.785301 -0.669000
							CHANNELS 3 Xrotation Yrotation Zrotation
							JOINT LeftArm
							{
								OFFSET 13.907140 -6.093903 1.965100
								CHANNELS 3 Xrotation Yrotation Zrotation
								JOINT LeftForeArm
								{
									OFFSET 34.140198 0.000000 0.000000
									CHANNELS 3 Xrotation Yrotation Zrotation
									JOINT LeftHand
									{
										OFFSET 40.960209 0.000000 0.000000
										CHANNELS 3 Xrotation Yrotation Zrotation
										JOINT LeftHandThumb1
										{
											OFFSET 10.006996 -7.170425 9.573125
											CHANNELS 3 Xrotation Yrotation Zrotation
											JOINT LeftHandThumb2
											{
												OFFSET 1.835007 -1.059448 1.059443
												CHANNELS 3 Xrotation Yrotation Zrotation
												JOINT LeftHandThumb3
												{
													OFFSET 2.112267 -1.219513 1.219518
													CHANNELS 3 Xrotation Yrotation Zrotation
													JOINT LeftHandThumb4
													{
														OFFSET 4.843811 -2.796570 2.796576
														CHANNELS 3 Xrotation Yrotation Zrotation
														End Site
														{
															OFFSET 0.000000 0.000000 0.000000
														}
													}
												}
											}
										}
										JOINT LeftHandIndex1
										{
											OFFSET 18.389847 -0.922348 4.596882
											CHANNELS 3 Xrotation Yrotation Zrotation
											JOINT LeftHandIndex2
											{
												OFFSET 4.711273 0.000000 0.000000
												CHANNELS 3 Xrotation Yrotation Zrotation
												JOINT LeftHandIndex3
												{
													OFFSET 2.886131 0.000000 0.000000
													CHANNELS 3 Xrotation Yrotation Zrotation
													JOINT LeftHandIndex4
													{
														OFFSET 6.145912 0.000000 0.000000
														CHANNELS 3 Xrotation Yrotation Zrotation
														End Site
														{
															OFFSET 0.000000 0.000000 0.000000
														}
													}
												}
											}
										}
										JOINT LeftHandMiddle1
										{
											OFFSET 18.013008 0.000000 0.000000
											CHANNELS 3 Xrotation Yrotation Zrotation
											JOINT LeftHandMiddle2
											{
												OFFSET 4.946693 0.000000 0.000000
												CHANNELS 3 Xrotation Yrotation Zrotation
												JOINT LeftHandMiddle3
												{
													OFFSET 3.342232 0.000000 0.000000
													CHANNELS 3 Xrotation Yrotation Zrotation
													JOINT LeftHandMiddle4
													{
														OFFSET 4.461754 0.000000 0.000000
														CHANNELS 3 Xrotation Yrotation Zrotation
														End Site
														{
															OFFSET 0.000000 0.000000 0.000000
														}
													}
												}
											}
										}
										JOINT LeftHandRing1
										{
											OFFSET 15.849892 -0.102921 -4.126150
											CHANNELS 3 Xrotation Yrotation Zrotation
											JOINT LeftHandRing2
											{
												OFFSET 3.527054 0.000000 0.000000
												CHANNELS 3 Xrotation Yrotation Zrotation
												JOINT LeftHandRing3
												{
													OFFSET 2.961098 0.000000 0.000000
													CHANNELS 3 Xrotation Yrotation Zrotation
													JOINT LeftHandRing4
													{
														OFFSET 4.927200 0.000000 0.000000
														CHANNELS 3 Xrotation Yrotation Zrotation
														End Site
														{
															OFFSET 0.000000 0.000000 0.000000
														}
													}
												}
											}
										}
										JOINT LeftHandPinky1
										{
											OFFSET 12.791824 -0.832031 -6.799156
											CHANNELS 3 Xrotation Yrotation Zrotation
											JOINT LeftHandPinky2
											{
												OFFSET 3.327133 0.000000 0.000000
												CHANNELS 3 Xrotation Yrotation Zrotation
												JOINT LeftHandPinky3
												{
													OFFSET 3.014900 0.000000 0.000000
													CHANNELS 3 Xrotation Yrotation Zrotation
													JOINT LeftHandPinky4
													{
														OFFSET 5.847786 0.000000 0.000000
														CHANNELS 3 Xrotation Yrotation Zrotation
														End Site
														{
															OFFSET 0.000000 0.000000 0.000000
														}
													}
												}
											}
										}
									}
								}
							}
						}
					}
					JOINT RightShoulder
					{
						OFFSET -6.292450 5.785301 -0.669000
						CHANNELS 3 Xrotation Yrotation Zrotation
						JOINT RightShoulder_split
						{
							OFFSET -6.292450 5.785301 -0.669000
							CHANNELS 3 Xrotation Yrotation Zrotation
							JOINT RightArm
							{
								OFFSET -13.907140 -6.093903 1.965100
								CHANNELS 3 Xrotation Yrotation Zrotation
								JOINT RightForeArm
								{
									OFFSET -34.140198 0.000000 0.000000
									CHANNELS 3 Xrotation Yrotation Zrotation
									JOINT RightHand
									{
										OFFSET -40.960209 0.000000 0.000000
										CHANNELS 3 Xrotation Yrotation Zrotation
										JOINT RightHandThumb1
										{
											OFFSET -10.007050 -7.170456 9.573117
											CHANNELS 3 Xrotation Yrotation Zrotation
											JOINT RightHandThumb2
											{
												OFFSET -1.835007 -1.059448 1.059443
												CHANNELS 3 Xrotation Yrotation Zrotation
												JOINT RightHandThumb3
												{
													OFFSET -2.112267 -1.219513 1.219518
													CHANNELS 3 Xrotation Yrotation Zrotation
													JOINT RightHandThumb4
													{
														OFFSET -4.843834 -2.796585 2.796590
														CHANNELS 3 Xrotation Yrotation Zrotation
														End Site
														{
															OFFSET 0.000000 0.000000 0.000000
														}
													}
												}
											}
										}
										JOINT RightHandIndex1
										{
											OFFSET -18.389870 -0.922424 4.596786
											CHANNELS 3 Xrotation Yrotation Zrotation
											JOINT RightHandIndex2
											{
												OFFSET -4.711273 0.000000 0.000000
												CHANNELS 3 Xrotation Yrotation Zrotation
												JOINT RightHandIndex3
												{
													OFFSET -2.886131 0.000000 0.000000
													CHANNELS 3 Xrotation Yrotation Zrotation
													JOINT RightHandIndex4
													{
														OFFSET -6.145920 0.000000 0.000000
														CHANNELS 3 Xrotation Yrotation Zrotation
														End Site
														{
															OFFSET 0.000000 0.000000 0.000000
														}
													}
												}
											}
										}
										JOINT RightHandMiddle1
										{
											OFFSET -18.013008 0.000000 0.000000
											CHANNELS 3 Xrotation Yrotation Zrotation
											JOINT RightHandMiddle2
											{
												OFFSET -4.946693 0.000000 0.000000
												CHANNELS 3 Xrotation Yrotation Zrotation
												JOINT RightHandMiddle3
												{
													OFFSET -3.342232 0.000000 0.000000
													CHANNELS 3 Xrotation Yrotation Zrotation
													JOINT RightHandMiddle4
													{
														OFFSET -4.461754 0.000000 0.000000
														CHANNELS 3 Xrotation Yrotation Zrotation
														End Site
														{
															OFFSET 0.000000 0.000000 0.000000
														}
													}
												}
											}
										}
										JOINT RightHandRing1
										{
											OFFSET -15.849876 -0.102936 -4.126237
											CHANNELS 3 Xrotation Yrotation Zrotation
											JOINT RightHandRing2
											{
												OFFSET -3.527054 0.000000 0.000000
												CHANNELS 3 Xrotation Yrotation Zrotation
												JOINT RightHandRing3
												{
													OFFSET -2.961098 0.000000 0.000000
													CHANNELS 3 Xrotation Yrotation Zrotation
													JOINT RightHandRing4
													{
														OFFSET -4.927200 0.000000 0.000000
														CHANNELS 3 Xrotation Yrotation Zrotation
														End Site
														{
															OFFSET 0.000000 0.000000 0.000000
														}
													}
												}
											}
										}
										JOINT RightHandPinky1
										{
											OFFSET -12.791786 -0.832077 -6.799222
											CHANNELS 3 Xrotation Yrotation Zrotation
											JOINT RightHandPinky2
											{
												OFFSET -3.327133 0.000000 0.000000
												CHANNELS 3 Xrotation Yrotation Zrotation
												JOINT RightHandPinky3
												{
													OFFSET -3.014900 0.000000 0.000000
													CHANNELS 3 Xrotation Yrotation Zrotation
													JOINT RightHandPinky4
													{
														OFFSET -5.847786 0.000000 0.000000
														CHANNELS 3 Xrotation Yrotation Zrotation
														End Site
														{
															OFFSET 0.000000 0.000000 0.000000
														}
													}
												}
											}
										}
									}
								}
							}
						}
					}
				}
			}
		}
	}
	JOINT LeftUpLeg
	{
		OFFSET 13.026900 -6.336304 -1.092800
		CHANNELS 3 Xrotation Yrotation Zrotation
		JOINT LeftLeg
		{
			OFFSET 0.524474 -46.096886 9.782700
			CHANNELS 3 Xrotation Yrotation Zrotation
			JOINT LeftFoot
			{
				OFFSET -0.524474 -53.427422 -12.948200
				CHANNELS 3 Xrotation Yrotation Zrotation
				JOINT LeftToeBase
				{
					OFFSET 0.192200 -14.009700 16.364100
					CHANNELS 3 Xrotation Yrotation Zrotation
					JOINT LeftToe_End
					{
						OFFSET -1.784700 -0.561700 9.474800
						CHANNELS 3 Xrotation Yrotation Zrotation
						End Site
						{
							OFFSET 0.000000 0.000000 0.000000
						}
					}
				}
			}
		}
	}
	JOINT RightUpLeg
	{
		OFFSET -12.883000 -6.336304 -1.092800
		CHANNELS 3 Xrotation Yrotation Zrotation
		JOINT RightLeg
		{
			OFFSET -0.524587 -46.096825 9.782800
			CHANNELS 3 Xrotation Yrotation Zrotation
			JOINT RightFoot
			{
				OFFSET 0.524587 -53.427383 -12.948300
				CHANNELS 3 Xrotation Yrotation Zrotation
				JOINT RightToeBase
				{
					OFFSET -0.192200 -14.009700 16.364100
					CHANNELS 3 Xrotation Yrotation Zrotation
					JOINT RightToe_End
					{
						OFFSET 1.784700 -0.561700 9.474800
						CHANNELS 3 Xrotation Yrotation Zrotation
						End Site
						{
							OFFSET 0.000000 0.000000 0.000000
						}
					}
				}
			}
		}
	}
}
MOTION
Frames: 4
Frame Time: 0.016667
-1.065625 15.801102 2.271164 -87.567458 -3.776099 -1.940342 0.596688 1.751385 -0.138131 -2.712456 0.550123 0.069934 0.000000 0.000000 0.000000 -2.709998 0.572754 0.085569 3.954685 -0.162521 0.200793 7.663466 -2.706719 7.904899 0.000001 0.000000 -0.000000 1.279305 -13.498955 -1.883385 0.000000 0.000000 0.000000 20.483968 -1.014532 -70.993464 -0.000010 -137.491476 -0.000024 -17.619163 18.840489 -43.362822 -7.220052 -16.942334 15.004575 7.558175 31.509541 -3.040780 -10.327325 16.515343 14.878088 -0.000001 0.000001 -0.000001 -0.024117 4.029259 2.883328 0.551248 2.482837 -25.032242 0.198059 -1.511912 14.925341 0.000000 -0.000000 0.000000 -0.237390 3.164805 12.085521 0.825493 3.000283 -30.761079 0.172875 -1.414088 13.939005 -0.000001 0.000000 -0.000000 -0.227154 2.636216 15.396440 0.647039 2.678215 -27.159663 0.198057 -1.511912 14.925358 -0.000000 -0.000000 0.000000 -1.716318 2.384076 10.103019 0.425830 2.194585 -21.959564 0.034579 0.636269 -6.221375 0.000000 0.000000 -0.000000 0.515807 6.973515 0.064736 0.000000 0.000000 0.000000 15.875308 6.901680 66.846515 -0.000031 133.088012 0.000035 -16.503243 -12.599709 49.917416 -19.372327 9.812738 -17.628158 16.805754 -33.149128 6.482056 3.930031 -4.675009 -18.270503 0.000002 -0.000001 0.000002 -0.578704 -1.290234 19.415301 -0.000003 0.000000 0.000025 0.000376 -0.059106 0.725570 -0.000000 -0.000000 0.000001 0.900191 -7.884228 9.062695 0.294487 -1.631366 20.463679 0.051641 -0.692361 8.531045 0.000000 -0.000002 0.000000 0.740062 -10.091161 4.911394 1.354388 -3.285246 44.799969 0.134869 1.113825 -13.807952 0.000000 0.000001 0.000001 0.507049 -5.672360 8.465990 1.111095 -3.020973 40.379050 0.158027 1.204126 -14.952701 0.000002 -0.000001 0.000001 -23.112599 14.671275 -5.792440 22.389109 -6.494377 -9.211256 2.092460 8.438077 6.565531 -0.279197 -0.000005 0.000007 0.000000 -0.000000 0.000001 -7.607476 -10.550821 0.325092 9.270544 -7.782945 7.048223 9.465381 -5.128440 26.913553 -1.652958 0.000012 0.000001 -0.000002 -0.000000 -0.000000 
-1.065368 15.799324 2.272133 -87.571822 -3.776859 -1.941360 0.603234 1.760681 -0.134015 -2.713533 0.552116 0.068063 0.000000 0.000000 0.000000 -2.711040 0.574704 0.083784 3.956773 -0.164480 0.200225 7.651817 -2.723802 7.913646 0.000000 0.000000 -0.000000 1.279898 -13.506575 -1.882614 0.000000 0.000000 0.000000 20.471323 -1.017566 -70.987153 -0.000018 -137.488197 -0.000021 -17.622334 18.842192 -43.369546 -7.219507 -16.942870 15.007538 7.558178 31.509544 -3.040775 -10.327325 16.515343 14.878080 -0.000001 0.000001 0.000006 -0.024116 4.029260 2.883328 0.551033 2.482373 -25.027246 0.198056 -1.511912 14.925348 0.000000 -0.000000 0.000001 -0.237389 3.164808 12.085508 0.825493 3.000281 -30.761079 0.173173 -1.415305 13.951233 0.000000 -0.000000 -0.000001 -0.227156 2.636217 15.396438 0.646789 2.677727 -27.154274 0.198058 -1.511912 14.925348 0.000000 0.000000 -0.000002 -1.716321 2.384076 10.103024 0.425639 2.194110 -21.954533 0.034579 0.636269 -6.221375 -0.000000 0.000000 -0.000000 0.515556 6.970730 0.064774 0.000000 0.000000 0.000000 15.874044 6.887361 66.861159 -0.000006 133.090443 -0.000018 -16.498015 -12.596075 49.928273 -19.372329 9.812735 -17.628156 16.805757 -33.149131 6.482054 3.930032 -4.675008 -18.270502 -0.000003 -0.000000 0.000003 -0.578705 -1.290233 19.415301 -0.000004 0.000001 0.000025 0.000376 -0.059106 0.725570 0.000000 0.000001 -0.000000 0.900190 -7.884226 9.062695 0.294487 -1.631365 20.463677 0.051640 -0.692359 8.531045 -0.000000 -0.000000 -0.000001 0.740060 -10.091158 4.911395 1.354387 -3.285246 44.799966 0.134871 1.113824 -13.807953 0.000001 -0.000000 -0.000000 0.507049 -5.672360 8.465990 1.111098 -3.020972 40.379050 0.158027 1.204125 -14.952700 0.000001 -0.000001 -0.000001 -23.110855 14.670423 -5.791220 22.391382 -6.494253 -9.211664 2.097263 8.432436 6.555852 -0.292428 -0.000009 0.000008 0.000001 0.000001 0.000001 -7.609218 -10.552911 0.325296 9.271097 -7.783071 7.047890 9.466975 -5.132044 26.909827 -1.649978 0.000001 0.000015 -0.000000 0.000000 -0.000002 
-1.064835 15.797798 2.273529 -87.572109 -3.776193 -1.943336 0.605567 1.766911 -0.128457 -2.714828 0.553227 0.066521 0.000000 0.000000 0.000000 -2.712317 0.575769 0.082299 3.958947 -0.166341 0.200116 7.643627 -2.740681 7.924389 -0.000000 0.000000 -0.000000 1.280315 -13.511005 -1.881052 0.000000 0.000000 0.000000 20.463059 -1.020412 -70.982468 0.000025 -137.485096 0.000010 -17.625462 18.842375 -43.375516 -7.217994 -16.944361 15.015877 7.558177 31.509548 -3.040783 -10.327326 16.515341 14.878090 -0.000000 -0.000000 -0.000003 -0.024116 4.029258 2.883322 0.550417 2.481056 -25.013025 0.198057 -1.511912 14.925348 0.000000 -0.000000 0.000001 -0.237391 3.164806 12.085518 0.825493 3.000281 -30.761068 0.174031 -1.418750 13.985903 0.000000 0.000000 -0.000000 -0.227156 2.636216 15.396437 0.646074 2.676334 -27.138969 0.198055 -1.511911 14.925355 0.000001 -0.000000 -0.000001 -1.716322 2.384074 10.103027 0.425094 2.192754 -21.940279 0.034577 0.636269 -6.221376 0.000000 0.000000 0.000000 0.515695 6.970291 0.064803 0.000000 0.000000 0.000000 15.871039 6.874126 66.875256 -0.000015 133.093722 0.000014 -16.491427 -12.597526 49.941749 -19.372326 9.812739 -17.628160 16.805757 -33.149124 6.482059 3.930031 -4.675012 -18.270500 0.000000 0.000003 -0.000000 -0.578706 -1.290233 19.415304 -0.000003 0.000000 0.000024 0.000375 -0.059106 0.725571 0.000000 -0.000000 -0.000000 0.900191 -7.884227 9.062695 0.294486 -1.631367 20.463679 0.051640 -0.692360 8.531045 -0.000000 -0.000000 0.000001 0.740060 -10.091159 4.911395 1.354388 -3.285248 44.799972 0.134869 1.113824 -13.807952 0.000001 -0.000000 0.000002 0.507048 -5.672360 8.465991 1.111099 -3.020973 40.379054 0.158026 1.204126 -14.952703 -0.000001 -0.000001 -0.000001 -23.113919 14.670522 -5.788707 22.394597 -6.495523 -9.212668 2.101884 8.430680 6.550038 -0.292832 -0.000003 -0.000000 0.000000 0.000001 0.000000 -7.610844 -10.555060 0.325599 9.271805 -7.782719 7.047588 9.467958 -5.135581 26.906161 -1.646737 -0.000008 -0.000001 -0.000000 -0.000001 0.000001 
-1.064306 15.796440 2.275337 -87.569937 -3.773700 -1.945343 0.605518 1.770547 -0.122500 -2.716215 0.553642 0.065173 0.000000 0.000000 0.000000 -2.713707 0.576141 0.080983 3.961076 -0.168043 0.200409 7.637750 -2.756497 7.936149 0.000001 -0.000000 0.000000 1.280686 -13.512916 -1.878508 0.000000 0.000000 0.000000 20.458075 -1.023371 -70.979401 0.000017 -137.481777 0.000012 -17.628588 18.841799 -43.381267 -7.215868 -16.946461 15.027584 7.558175 31.509544 -3.040779 -10.327325 16.515341 14.878085 0.000000 0.000001 0.000001 -0.024115 4.029261 2.883320 0.549554 2.479206 -24.993086 0.198057 -1.511912 14.925353 0.000000 -0.000000 -0.000000 -0.237390 3.164805 12.085513 0.825493 3.000284 -30.761072 0.175240 -1.423584 14.034547 0.000000 -0.000000 -0.000001 -0.227154 2.636217 15.396421 0.645073 2.674381 -27.117494 0.198056 -1.511912 14.925355 0.000000 0.000000 -0.000003 -1.716319 2.384078 10.103018 0.424327 2.190855 -21.920263 0.034579 0.636269 -6.221376 -0.000000 0.000000 0.000000 0.516038 6.971517 0.064825 0.000000 0.000000 0.000000 15.867207 6.862408 66.888869 0.000029 133.097192 -0.000020 -16.483939 -12.601887 49.956441 -19.372326 9.812738 -17.628160 16.805754 -33.149131 6.482048 3.930032 -4.675013 -18.270502 -0.000001 -0.000002 0.000000 -0.578704 -1.290233 19.415301 -0.000004 0.000001 0.000025 0.000376 -0.059106 0.725569 -0.000000 -0.000000 0.000000 0.900190 -7.884227 9.062694 0.294487 -1.631365 20.463679 0.051641 -0.692362 8.531043 -0.000000 0.000001 -0.000004 0.740060 -10.091159 4.911392 1.354390 -3.285244 44.799962 0.134870 1.113827 -13.807949 -0.000000 0.000003 0.000001 0.507049 -5.672361 8.465988 1.111097 -3.020974 40.379050 0.158026 1.204125 -14.952701 0.000002 0.000000 -0.000001 -23.119560 14.671410 -5.786497 22.398938 -6.496178 -9.212947 2.105501 8.431064 6.549159 -0.288134 -0.000002 0.000007 -0.000001 0.000001 0.000001 -7.612472 -10.557278 0.326038 9.272780 -7.782051 7.047306 9.468503 -5.139026 26.902524 -1.643300 0.000022 -0.000016 -0.000000 0.000000 0.000002 
